<?xml version="1.0" encoding="utf-8"?>
<!-- Generator: Adobe Illustrator 16.0.3, SVG Export Plug-In . SVG Version: 6.00 Build 0)  -->
<!DOCTYPE svg PUBLIC "-//W3C//DTD SVG 1.1//EN" "http://www.w3.org/Graphics/SVG/1.1/DTD/svg11.dtd">
<svg version="1.1" id="Calque_1" xmlns="http://www.w3.org/2000/svg" xmlns:xlink="http://www.w3.org/1999/xlink" x="0px" y="0px"
	 width="30px" height="30px" viewBox="0 131.25 30 30" enable-background="new 0 131.25 30 30" xml:space="preserve">
<path d="M21.25,145h1.25v1.25h-1.25V145z"/>
<path d="M23.75,145H25v1.25h-1.25V145z"/>
<path d="M18.75,140H20v1.25h-1.25V140z"/>
<path d="M21.25,140h1.25v1.25h-1.25V140z"/>
<path d="M20,143.75h1.25V145H20V143.75z"/>
<path d="M20,141.25h1.25v1.25H20V141.25z"/>
<path d="M20,148.75h1.25V150H20V148.75z"/>
<path d="M21.25,147.5h1.25v1.25h-1.25V147.5z"/>
<path d="M20,146.25h1.25v1.25H20V146.25z"/>
<path d="M22.5,148.75h1.25V150H22.5V148.75z"/>
<path d="M20,151.25h1.25v1.25H20V151.25z"/>
<path d="M22.5,143.75h1.25V145H22.5V143.75z"/>
<path d="M21.25,150h1.25v1.25h-1.25V150z"/>
<path d="M22.5,146.25h1.25v1.25H22.5V146.25z"/>
<path d="M18.75,150H20v1.25h-1.25V150z"/>
<path d="M18.75,145H20v1.25h-1.25V145z"/>
<path d="M18.75,147.5H20v1.25h-1.25V147.5z"/>
<path d="M18.75,142.5H20v1.25h-1.25V142.5z"/>
<path d="M21.25,142.5h1.25v1.25h-1.25V142.5z"/>
<path d="M16.25,150h1.25v1.25h-1.25V150z"/>
<path d="M16.25,145h1.25v1.25h-1.25V145z"/>
<path d="M16.25,147.5h1.25v1.25h-1.25V147.5z"/>
<path d="M16.25,155h1.25v1.25h-1.25V155z"/>
<path d="M23.847,152.5H23.75v0.123C23.781,152.582,23.814,152.54,23.847,152.5z"/>
<path d="M18.75,152.5H20v1.25h-1.25V152.5z"/>
<path d="M18.75,156.244c0.422-0.163,0.839-0.357,1.25-0.575V155h-1.25V156.244z"/>
<path d="M18.732,156.25H17.5v0.381C17.911,156.533,18.324,156.408,18.732,156.25z"/>
<path d="M22.674,153.75H22.5v0.158C22.558,153.857,22.615,153.803,22.674,153.75z"/>
<path d="M20,136.831v0.669h1.104C20.745,137.256,20.377,137.033,20,136.831z"/>
<path d="M16.25,142.5h1.25v1.25h-1.25V142.5z"/>
<path d="M18.75,136.256l-0.018-0.006H17.5v1.25h1.25V136.256z"/>
<path d="M26.147,145c-0.063-0.424-0.159-0.84-0.281-1.25H25V145H26.147z"/>
<path d="M25,141.696v0.804h0.408C25.286,142.226,25.146,141.959,25,141.696z"/>
<path d="M16.25,140h1.25v1.25h-1.25V140z"/>
<path d="M16.25,137.5h1.25v1.25h-1.25V137.5z"/>
<path d="M16.25,135.651v0.599h1.25v-0.381C17.081,135.768,16.662,135.688,16.25,135.651z"/>
<path d="M16.25,152.5h1.25v1.25h-1.25V152.5z"/>
<path d="M17.5,148.75h1.25V150H17.5V148.75z"/>
<path d="M17.5,146.25h1.25v1.25H17.5V146.25z"/>
<path d="M17.5,151.25h1.25v1.25H17.5V151.25z"/>
<path d="M17.5,153.75h1.25V155H17.5V153.75z"/>
<path d="M23.75,151.25h0.99c0.091-0.146,0.178-0.295,0.26-0.443V150h-1.25V151.25z"/>
<path d="M20,138.75h1.25V140H20V138.75z"/>
<path d="M18.75,137.5H20v1.25h-1.25V137.5z"/>
<path d="M17.5,138.75h1.25V140H17.5V138.75z"/>
<path d="M17.5,141.25h1.25v1.25H17.5V141.25z"/>
<path d="M17.5,143.75h1.25V145H17.5V143.75z"/>
<path d="M23.75,147.5H25v1.25h-1.25V147.5z"/>
<path d="M25,146.25v1.25h1.147c0.06-0.413,0.103-0.828,0.103-1.25H25z"/>
<path d="M25.408,150c0.182-0.406,0.332-0.824,0.458-1.25H25V150H25.408z"/>
<path d="M20,155h1.104c0.049-0.031,0.099-0.064,0.146-0.098v-1.152H20V155z"/>
<path d="M23.75,142.5H25v1.25h-1.25V142.5z"/>
<path d="M22.5,141.25h1.25v1.25H22.5V141.25z"/>
<path d="M15,131.25c-8.284,0-15,6.716-15,15c0,8.283,6.716,15,15,15c8.283,0,15-6.717,15-15C30,137.966,23.283,131.25,15,131.25z
	 M26.25,151.25h-0.053c-2.164,4.063-6.658,6.875-10.572,6.875c-0.345,0-0.625-0.281-0.625-0.625V135c0-0.345,0.28-0.625,0.625-0.625
	c5.379,0,11.875,5.297,11.875,11.875c0,1.752-0.471,3.411-1.25,4.904V151.25z"/>
<path d="M21.25,152.5h1.25v1.25h-1.25V152.5z"/>
<path d="M22.5,151.25h1.25v1.25H22.5V151.25z"/>
<path d="M22.5,140h1.25v1.25h0.99c-0.894-1.444-2.117-2.696-3.49-3.652v1.152h1.25V140z"/>
</svg>
