<svg xmlns="http://www.w3.org/2000/svg" xmlns:xlink="http://www.w3.org/1999/xlink" version="1.1" id="Glyphs_-_Text_Editor" x="0px" y="0px" viewBox="0 0 40 40" enable-background="new 0 0 40 40" xml:space="preserve" width="24px" height="24px" >
<path id="Quote_Sans_1_" fill-rule="evenodd" clip-rule="evenodd" d="M11.5,10c-1.6,2.4-2.9,5.8-4,9l5,0c0.5-2.8,0.9-6.3,2-9H11.5z   M21.5,10h-3c-1.6,2.4-2.9,5.8-4,9h5C20,16.2,20.5,12.7,21.5,10z M27.5,21c-0.5,2.8-0.9,6.3-2,9h3c1.6-2.4,2.9-5.8,4-9L27.5,21z   M20.5,21c-0.5,2.8-1,6.3-2,9h3c1.6-2.4,2.9-5.8,4-9H20.5z"/>
</svg>