<?xml version="1.0" encoding="utf-8"?>
<!-- Generator: Adobe Illustrator 16.0.3, SVG Export Plug-In . SVG Version: 6.00 Build 0)  -->
<!DOCTYPE svg PUBLIC "-//W3C//DTD SVG 1.1//EN" "http://www.w3.org/Graphics/SVG/1.1/DTD/svg11.dtd">
<svg version="1.1" id="Calque_1" xmlns="http://www.w3.org/2000/svg" xmlns:xlink="http://www.w3.org/1999/xlink" x="0px" y="0px"
	 width="30px" height="30px" viewBox="0 131.25 30 30" enable-background="new 0 131.25 30 30" xml:space="preserve">
<circle fill="#FFFFFF" cx="15" cy="146.25" r="14"/>
<path d="M15,132.5c7.58,0,13.75,6.169,13.75,13.75c0,7.58-6.17,13.75-13.75,13.75c-7.581,0-13.75-6.17-13.75-13.75
	C1.25,138.669,7.419,132.5,15,132.5z M15,131.25c-8.284,0-15,6.716-15,15c0,8.283,6.716,15,15,15c8.283,0,15-6.717,15-15
	C30,137.966,23.283,131.25,15,131.25L15,131.25z"/>
<path d="M15.625,158.125c-0.345,0-0.625-0.281-0.625-0.625V135c0-0.345,0.28-0.625,0.625-0.625c5.379,0,11.875,5.297,11.875,11.875
	C27.5,152.83,21.004,158.125,15.625,158.125z M16.25,135.651v21.197c4.651-0.396,10-5.125,10-10.599S20.901,136.05,16.25,135.651z"
	/>
<path d="M16.25,136.25h1.25v1.25h-1.25V136.25z"/>
<path d="M16.25,138.75h1.25V140h-1.25V138.75z"/>
<path d="M16.25,141.25h1.25v1.25h-1.25V141.25z"/>
<path d="M16.25,143.75h1.25V145h-1.25V143.75z"/>
<path d="M16.25,146.25h1.25v1.25h-1.25V146.25z"/>
<path d="M16.25,148.75h1.25V150h-1.25V148.75z"/>
<path d="M16.25,151.25h1.25v1.25h-1.25V151.25z"/>
<path d="M16.25,153.75h1.25V155h-1.25V153.75z"/>
<path d="M16.25,156.25h1.25v1.25h-1.25V156.25z"/>
<path d="M17.5,135h1.25v1.25H17.5V135z"/>
<path d="M17.5,137.5h1.25v1.25H17.5V137.5z"/>
<path d="M17.5,140h1.25v1.25H17.5V140z"/>
<path d="M17.5,142.5h1.25v1.25H17.5V142.5z"/>
<path d="M17.5,145h1.25v1.25H17.5V145z"/>
<path d="M17.5,147.5h1.25v1.25H17.5V147.5z"/>
<path d="M17.5,150h1.25v1.25H17.5V150z"/>
<path d="M17.5,152.5h1.25v1.25H17.5V152.5z"/>
<path d="M17.5,155h1.25v1.25H17.5V155z"/>
<path d="M18.75,136.25H20v1.25h-1.25V136.25z"/>
<path d="M18.75,138.75H20V140h-1.25V138.75z"/>
<path d="M18.75,141.25H20v1.25h-1.25V141.25z"/>
<path d="M18.75,143.75H20V145h-1.25V143.75z"/>
<path d="M18.75,146.25H20v1.25h-1.25V146.25z"/>
<path d="M18.75,148.75H20V150h-1.25V148.75z"/>
<path d="M18.75,151.25H20v1.25h-1.25V151.25z"/>
<path d="M18.75,153.75H20V155h-1.25V153.75z"/>
<path d="M20,137.5h1.25v1.25H20V137.5z"/>
<path d="M20,140h1.25v1.25H20V140z"/>
<path d="M20,142.5h1.25v1.25H20V142.5z"/>
<path d="M20,145h1.25v1.25H20V145z"/>
<path d="M20,147.5h1.25v1.25H20V147.5z"/>
<path d="M20,150h1.25v1.25H20V150z"/>
<path d="M20,152.5h1.25v1.25H20V152.5z"/>
<path d="M20,155h1.25v1.25H20V155z"/>
<path d="M21.25,138.75h1.25V140h-1.25V138.75z"/>
<path d="M21.25,141.25h1.25v1.25h-1.25V141.25z"/>
<path d="M21.25,143.75h1.25V145h-1.25V143.75z"/>
<path d="M21.25,146.25h1.25v1.25h-1.25V146.25z"/>
<path d="M21.25,148.75h1.25V150h-1.25V148.75z"/>
<path d="M21.25,151.25h1.25v1.25h-1.25V151.25z"/>
<path d="M21.25,153.75h1.25V155h-1.25V153.75z"/>
<path d="M22.5,140h1.25v1.25H22.5V140z"/>
<path d="M22.5,142.5h1.25v1.25H22.5V142.5z"/>
<path d="M22.5,145h1.25v1.25H22.5V145z"/>
<path d="M22.5,147.5h1.25v1.25H22.5V147.5z"/>
<path d="M22.5,150h1.25v1.25H22.5V150z"/>
<path d="M22.5,152.5h1.25v1.25H22.5V152.5z"/>
<path d="M23.75,141.25H25v1.25h-1.25V141.25z"/>
<path d="M23.75,143.75H25V145h-1.25V143.75z"/>
<path d="M23.75,146.25H25v1.25h-1.25V146.25z"/>
<path d="M23.75,148.75H25V150h-1.25V148.75z"/>
<path d="M23.75,151.25H25v1.25h-1.25V151.25z"/>
<path d="M25,142.5h1.25v1.25H25V142.5z"/>
<path d="M25,145h1.25v1.25H25V145z"/>
<path d="M25,147.5h1.25v1.25H25V147.5z"/>
<path d="M25,150h1.25v1.25H25V150z"/>
</svg>
